<svg fill="none" height="190" viewBox="0 0 150 190" width="150" xmlns="http://www.w3.org/2000/svg"><path clip-rule="evenodd" d="m77.356 93.9357c15.26 0 15.164 23.3173.261 23.3173-16.319-.001-15.581-23.3173-.261-23.3173zm29.501 44.7223c-.81.729-1.674 1.323-2.576 1.82l-.876-5.451c.035-.03.074-.056.109-.087 3.946-3.55 4.064-9.572 1.789-16.439-6.914 3.797-15.371 6.714-23.803 8.5-1.727.366-3.475.677-5.229.954 3.296 2.588 6.619 4.781 9.815 6.393 1.181-2.044 3.344-3.542 6.446-3.542 9.753 0 9.691 14.901.166 14.901-4.799 0-7.284-3.156-7.62-6.563-5.15-2.401-10.454-6.045-15.455-10.368-4.477.395-8.889.468-13.008.141 1.018 7.982 4.478 12.747 8.901 14.188 3.824 1.246 7.955-.365 11.966-4.04l4.106 2.708c-5.415 5.384-11.469 8.09-17.621 6.086-7.889-2.569-11.457-10.164-12.24-19.546-9.354-1.602-16.446-5.664-18.016-13.071-.227-1.071-.333-2.12-.341-3.147-6.846-2.801-5.437-14.2883 3.16-14.2883 9.119 0 9.656 13.0233 1.903 14.7173.018.569.053 1.135.169 1.682 1.008 4.756 5.853 7.815 12.953 9.217.051-4.237.577-8.702 1.438-13.143-9.742-14.0353-14.765-29.5623-5.956-37.4833 4.978-4.474 11.381-4.88 18.141-2.765l-2.009 4.52c-5.555-1.446-9.968-.572-12.788 1.963-5.499 4.944-3.171 15.604 4.122 27.2563.438-1.629.905-3.243 1.418-4.8173 3.706-11.377 9.946-23.279 17.459-30.292-1.314-4.323 1.184-9.856 7.151-9.856 9.752 0 9.691 14.901.166 14.901-1.772 0-3.222-.437-4.372-1.151-6.386 6.112-12.14 16.889-15.732 27.9203-.997 3.061-1.784 5.945-2.417 8.686 1.876 2.541 3.96 5.094 6.226 7.614 2.19 2.436 4.501 4.77 6.869 6.937 2.985-.352 6.067-.853 9.209-1.519 8.412-1.782 16.645-4.625 23.061-8.181-.528-1.168-1.108-2.349-1.743-3.537l2.958-4.696c1.081 1.869 2.052 3.752 2.921 5.628 5.804-4.098 9.171-8.896 8.09-14.0033-1.093-5.157-6.181-8.269-13.189-9.746-.187 7.762-1.85 16.3783-4.453 24.4433l-5.746 1.631c.341-.955.675-1.919.995-2.901 2.645-8.121 4.29-16.6073 4.437-23.9053-7.485-.764-16.354-.079-24.749 1.7-.599.127-1.146.272-1.728.405l1.671-5.405c8.048-1.619 16.83-2.318 24.657-1.588-.478-5.469-2.047-9.893-4.995-12.4l.894-5.438c5.67 3.161 8.359 10.057 8.922 18.504 9.322 1.725 16.536 5.925 18.176 13.665 1.596 7.5343-3.22 14.2223-11.122 19.5553 3.225 8.996 3.237 17.413-2.68 22.733zm-46.106-18.597c-1.302-1.447-2.569-2.942-3.792-4.47-.445 3.078-.657 5.919-.644 8.496 2.618.231 5.445.284 8.423.161-1.37-1.361-2.704-2.759-3.987-4.187z" fill="#000" fill-rule="evenodd"/></svg>